# xmcd
#
# Track frame offsets: 
#        150
#        15941
#        30161
#        41286
#        56082
#        71398
#        82339
#        92265
#        106403
#        119957
#        130050
#        145234
#        156697
#        171642
#        186756
#        200657
#        212462
#        224734
#
# Disc length: 3212 seconds
#
# Revision: 3
# Processed by: cddbd v1.5.2PL0 Copyright (c) Steve Scherf et al.
# Submitted via: ExactAudioCopy v1.0b1
#
DISCID=0b0c8a12
DTITLE=B.B. King - The Soul Of B.B. King
DYEAR=1963
DGENRE=Blues
TTITLE0=Going Home (mono)
TTITLE1=The Letter (mono)
TTITLE2=You Never Know (mono)
TTITLE3=Please Remember Me (mono)
TTITLE4=Come Back Baby (mono)
TTITLE5=You Won't Listen (mono)
TTITLE6=Sundown (mono)
TTITLE7=You Shouldn't Have Left (mono)
TTITLE8=Boogie Rock (mono)
TTITLE9=Shake Yours (mono)
TTITLE10=The Road I Travel (mono)
TTITLE11=Eyesight To The Blind (mono)
TTITLE12=Green And Lucky Blues (mono)
TTITLE13=Dust My Broom (stereo)
TTITLE14=Dreams (mono)
TTITLE15=Love, Honor And Obey (mono)
TTITLE16=Don't Let It Shock You (mono)
TTITLE17=A Woman Don't Care (mono)
EXTD=
EXTT0=
EXTT1=
EXTT2=
EXTT3=
EXTT4=
EXTT5=
EXTT6=
EXTT7=
EXTT8=
EXTT9=
EXTT10=
EXTT11=
EXTT12=
EXTT13=
EXTT14=
EXTT15=
EXTT16=
EXTT17=
PLAYORDER=
